# xmcd
#
# Track frame offsets:
#	150
#	67047
#	98820
#	128565
#	192465
#	229695
#	271637
#
# Disc length: 4269 seconds
#
# Revision: 1
# Processed by: cddbd v1.5.1PL0 Copyright (c) Steve Scherf et al.
# Submitted via: CDex 1.50Beta5
#
DISCID=5910ab07
DTITLE=内田光子 - Mozwrt-PianoConcertN021,No24
DYEAR=1900
DGENRE=Classical
TTITLE0=PianoConcertN021-Allegro
TTITLE1=PianoConcertN021-Andante
TTITLE2=PianoConcertN021-Allegro vivace assai
TTITLE3=PianoConcertN024-Allegro
TTITLE4=PianoConcertN024-Langheto
TTITLE5=PianoConcertN024-Allegretto
TTITLE6=Rondo in A minor
EXTD=
EXTT0=
EXTT1=
EXTT2=
EXTT3=
EXTT4=
EXTT5=
EXTT6=
PLAYORDER=
